<?xml version="1.0" encoding="UTF-8" standalone="no"?>
<!-- Generator: Adobe Illustrator 18.1.0, SVG Export Plug-In . SVG Version: 6.00 Build 0)  -->

<svg
   version="1.1"
   id="Layer_1"
   x="0px"
   y="0px"
   viewBox="0 0 20 20"
   enable-background="new 0 0 20 20"
   xml:space="preserve"
   sodipodi:docname="double-chevron-right.svg"
   inkscape:version="1.3.2 (091e20e, 2023-11-25, custom)"
   xmlns:inkscape="http://www.inkscape.org/namespaces/inkscape"
   xmlns:sodipodi="http://sodipodi.sourceforge.net/DTD/sodipodi-0.dtd"
   xmlns="http://www.w3.org/2000/svg"
   xmlns:svg="http://www.w3.org/2000/svg"><defs
   id="defs1" /><sodipodi:namedview
   id="namedview1"
   pagecolor="#ffffff"
   bordercolor="#000000"
   borderopacity="0.25"
   inkscape:showpageshadow="2"
   inkscape:pageopacity="0.0"
   inkscape:pagecheckerboard="0"
   inkscape:deskcolor="#d1d1d1"
   inkscape:zoom="89.6"
   inkscape:cx="10.00558"
   inkscape:cy="10.887277"
   inkscape:window-width="3840"
   inkscape:window-height="2050"
   inkscape:window-x="2148"
   inkscape:window-y="1658"
   inkscape:window-maximized="1"
   inkscape:current-layer="Layer_1" />
<g
   id="chevron_left_1_"
   transform="matrix(-1,0,0,1,24.709821,-0.3459825)">
	<g
   id="g1">
		<path
   fill-rule="evenodd"
   clip-rule="evenodd"
   d="M 8.41,10 13.7,4.71 C 13.89,4.53 14,4.28 14,4 14,3.45 13.55,3 13,3 12.72,3 12.47,3.11 12.29,3.29 l -6,6 C 6.11,9.47 6,9.72 6,10 c 0,0.28 0.11,0.53 0.29,0.71 l 6,6 C 12.47,16.89 12.72,17 13,17 c 0.55,0 1,-0.45 1,-1 0,-0.28 -0.11,-0.53 -0.29,-0.71 z"
   id="path1" />
	</g>
</g>
<g
   id="chevron_left_1_-1"
   transform="matrix(-1,0,0,1,17.912946,-0.3504465)">
	<g
   id="g2">
		<path
   fill-rule="evenodd"
   clip-rule="evenodd"
   d="M 8.41,10 13.7,4.71 C 13.89,4.53 14,4.28 14,4 14,3.45 13.55,3 13,3 12.72,3 12.47,3.11 12.29,3.29 l -6,6 C 6.11,9.47 6,9.72 6,10 c 0,0.28 0.11,0.53 0.29,0.71 l 6,6 C 12.47,16.89 12.72,17 13,17 c 0.55,0 1,-0.45 1,-1 0,-0.28 -0.11,-0.53 -0.29,-0.71 z"
   id="path1-7" />
	</g>
</g></svg>
